<svg viewBox="0 0 15.62 14.72"><path d="m7.8 6.5a3.35 3.35 0 0 0 1-.19l.58 1 .39.7a.6.6 0 0 0 .52.31.65.65 0 0 0 .31-.08.61.61 0 0 0 .21-.84l-.39-.7-.58-1a3.3 3.3 0 0 0 1.16-2.46 3.2 3.2 0 0 0 -3.18-3.24 3.22 3.22 0 0 0 -3.18 3.26 3.2 3.2 0 0 0 3.16 3.24zm0-5.27a2 2 0 1 1 -2 2 2 2 0 0 1 2-2z" fill="#f7df1e"/><path d="m12.45 8.23a3.21 3.21 0 0 0 -3.11 2.63h-1.92a.61.61 0 0 0 -.59.61.6.6 0 0 0 .59.6h1.92a3.18 3.18 0 1 0 3.11-3.84zm0 5.26a2 2 0 1 1 2-2 2 2 0 0 1 -2 2z"/><path d="m5.82 8 .4-.7a.64.64 0 0 0 -.22-.82.61.61 0 0 0 -.83.22l-.39.7-.57 1a3.26 3.26 0 0 0 -1-.18 3.25 3.25 0 0 0 0 6.49 3.26 3.26 0 0 0 2.04-5.71zm-2.66 5.49a2 2 0 0 1 0-4 2 2 0 0 1 2 2 2 2 0 0 1 -2 2z"/></svg>
